<?xml version="1.0" encoding="utf-8"?>
<!-- Generator: Adobe Illustrator 16.0.0, SVG Export Plug-In . SVG Version: 6.00 Build 0)  -->
<!DOCTYPE svg PUBLIC "-//W3C//DTD SVG 1.1//EN" "http://www.w3.org/Graphics/SVG/1.1/DTD/svg11.dtd">
<svg version="1.1" xmlns="http://www.w3.org/2000/svg" xmlns:xlink="http://www.w3.org/1999/xlink" x="0px" y="0px"
	 width="456.614px" height="140.988px" viewBox="0 0 456.614 140.988" enable-background="new 0 0 456.614 140.988"
	 xml:space="preserve">
<g id="Layer_2" display="none">
	
		<rect x="-120.513" y="-58.801" display="inline" fill="#676767" stroke="#9DCD5B" stroke-width="3" stroke-miterlimit="10" width="696.5" height="257.366"/>
</g>
<g id="Layer_1">
	<line fill="none" stroke="#000000" stroke-miterlimit="10" x1="-5.559" y1="-110.74" x2="-4.907" y2="-112.002"/>
	<line fill="none" stroke="#000000" stroke-miterlimit="10" x1="-19.726" y1="-83.332" x2="49.192" y2="-216.665"/>
	<polyline fill="none" stroke="#000000" stroke-miterlimit="10" points="-19.726,-83.332 -71.726,-216.665 -45.726,-216.665 
		-4.905,-111.997 	"/>
	<line fill="none" stroke="#000000" stroke-miterlimit="10" x1="-11.267" y1="-216.665" x2="14.733" y2="-149.999"/>
	<line fill="none" stroke="#000000" stroke-miterlimit="10" x1="-45.726" y1="-149.998" x2="14.733" y2="-149.998"/>
	<polyline fill="none" stroke="#000000" stroke-miterlimit="10" points="-45.726,-149.999 -11.267,-216.665 14.733,-216.665 
		29.552,-178.668 	"/>
	<g>
		<polyline fill="#707070" stroke="#9DCD5B" stroke-width="3" stroke-miterlimit="10" points="263.192,69.882 237.192,3.216 
			263.192,3.216 278.011,41.213 		"/>
		
			<line fill="#707070" stroke="#9DCD5B" stroke-width="3" stroke-miterlimit="10" x1="243.981" y1="107.049" x2="297.651" y2="3.216"/>
	</g>
	<g>
		<polygon fill="#707070" stroke="#9DCD5B" stroke-width="3" stroke-miterlimit="10" points="71.77,108.032 30.949,3.364 
			4.949,3.364 56.949,136.697 		"/>
		<line fill="#959595" stroke="#9DCD5B" stroke-width="3" stroke-miterlimit="10" x1="65.409" y1="3.364" x2="30.949" y2="70.03"/>
	</g>
	<g>
		<polygon fill="#707070" stroke="#9DCD5B" stroke-width="3" stroke-miterlimit="10" points="65.192,3.216 91.192,69.882 
			118.82,69.882 92.82,3.216 		"/>
		
			<line fill="#707070" stroke="#9DCD5B" stroke-width="3" stroke-miterlimit="10" x1="106.768" y1="41.361" x2="123.284" y2="41.361"/>
		
			<line fill="#707070" stroke="#9DCD5B" stroke-width="3" stroke-miterlimit="10" x1="30.891" y1="69.882" x2="263.192" y2="69.882"/>
		<line fill="#707070" stroke="#9DCD5B" stroke-width="3" stroke-miterlimit="10" x1="65.192" y1="3.216" x2="111.987" y2="3.216"/>
	</g>
	<g>
		<polyline fill="#707070" stroke="#9DCD5B" stroke-width="3" stroke-miterlimit="10" points="346.845,69.882 320.845,3.216 
			346.845,3.216 361.665,41.213 		"/>
		
			<line fill="#707070" stroke="#9DCD5B" stroke-width="3" stroke-miterlimit="10" x1="312.386" y1="136.549" x2="381.304" y2="3.216"/>
	</g>
	<g>
		<polygon fill="#707070" stroke="#9DCD5B" stroke-width="3" stroke-miterlimit="10" points="408.887,3.216 434.753,69.538 
			408.32,69.92 382.305,3.216 		"/>
		<polyline fill="#707070" stroke="#9DCD5B" stroke-width="3" stroke-miterlimit="10" points="453.876,37.633 440.461,3.216 
			453.884,37.633 434.753,69.538 		"/>
	</g>
	<g>
		<path fill="#959595" stroke="#9DCD5B" stroke-width="3" stroke-miterlimit="10" d="M250.936,44.312"/>
	</g>
	<g>
		<polygon fill="#707070" stroke="#9DCD5B" stroke-width="3" stroke-miterlimit="10" points="122.109,3.216 148.108,69.882 
			175.737,69.882 149.737,3.216 		"/>
	</g>
	<g>
		<polygon fill="#707070" stroke="#9DCD5B" stroke-width="3" stroke-miterlimit="10" points="179.776,3.216 205.775,69.882 
			233.403,69.882 207.403,3.216 		"/>
	</g>
</g>
</svg>
